<svg xmlns="http://www.w3.org/2000/svg" viewBox="0 0 1560 1300" font-family="-apple-system,'Segoe UI',Helvetica,Arial,sans-serif">
  <defs>
    <marker id="arr" viewBox="0 0 10 10" refX="9" refY="5" markerWidth="7.5" markerHeight="7.5" orient="auto-start-reverse">
      <path d="M0,0 L10,5 L0,10 z" fill="#475569"/>
    </marker>
    <marker id="arrTeal" viewBox="0 0 10 10" refX="9" refY="5" markerWidth="7.5" markerHeight="7.5" orient="auto-start-reverse">
      <path d="M0,0 L10,5 L0,10 z" fill="#0f766e"/>
    </marker>
    <marker id="arrRed" viewBox="0 0 10 10" refX="9" refY="5" markerWidth="7.5" markerHeight="7.5" orient="auto-start-reverse">
      <path d="M0,0 L10,5 L0,10 z" fill="#b91c1c"/>
    </marker>
  </defs>
  <rect width="1560" height="1300" fill="#ffffff"/>

  <text x="40" y="40" font-size="22" font-weight="700" fill="#0f172a">CommanderSCP — Child Domain Instance (detailed)</text>
  <text x="40" y="64" font-size="13" fill="#64748b">Same scpd image as the parent · enrolled to a parent · fully operational when disconnected</text>

  <!-- federation inbound band -->
  <rect x="40" y="88" width="180" height="68" rx="10" fill="#f0fdfa" stroke="#0f766e"/>
  <text x="130" y="115" text-anchor="middle" font-size="11.5" font-weight="700" fill="#0f766e">Parent instance</text>
  <text x="130" y="133" text-anchor="middle" font-size="10" fill="#134e4a">global config authority</text>
  <rect x="40" y="170" width="180" height="54" rx="10" fill="#f3f4f6" stroke="#64748b"/>
  <text x="130" y="192" text-anchor="middle" font-size="11" font-weight="700" fill="#374151">Operator</text>
  <text x="130" y="209" text-anchor="middle" font-size="9.5" fill="#6b7280">hand-entry (no file path)</text>

  <rect x="330" y="88" width="440" height="136" rx="10" fill="#f0fdfa" stroke="#0f766e"/>
  <text x="342" y="110" font-size="12.5" font-weight="700" fill="#0f766e">Federation import + verify</text>
  <g font-size="11" fill="#134e4a">
    <rect x="342" y="118" width="416" height="28" rx="6" fill="#ffffff" opacity="0.8" stroke="#5eead4"/>
    <text x="352" y="136">verify Ed25519 signature · hash chain · resume from cursor</text>
    <rect x="342" y="150" width="416" height="28" rx="6" fill="#ffffff" opacity="0.8" stroke="#5eead4"/>
    <text x="352" y="168">idempotent replay through the public write path (convergent)</text>
    <rect x="342" y="182" width="416" height="28" rx="6" fill="#ffffff" opacity="0.8" stroke="#5eead4"/>
    <text x="352" y="200">validate approval attestations against origin-domain keys</text>
  </g>
  <line x1="220" y1="112" x2="330" y2="112" stroke="#0f766e" stroke-width="1.6" marker-end="url(#arrTeal)"/>
  <text x="275" y="104" text-anchor="middle" font-size="9.5" fill="#0f766e">mTLS journal pull</text>
  <line x1="220" y1="140" x2="330" y2="140" stroke="#0f766e" stroke-width="1.6" stroke-dasharray="6 4" marker-end="url(#arrTeal)"/>
  <text x="275" y="156" text-anchor="middle" font-size="9.5" fill="#0f766e">.scpbundle file</text>
  <line x1="220" y1="197" x2="330" y2="197" stroke="#64748b" stroke-width="1.4" stroke-dasharray="2 3" marker-end="url(#arr)"/>
  <text x="275" y="190" text-anchor="middle" font-size="9.5" fill="#64748b">manual entry</text>

  <rect x="800" y="88" width="400" height="136" rx="10" fill="#fefce8" stroke="#a16207"/>
  <text x="812" y="110" font-size="12.5" font-weight="700" fill="#a16207">Parent-origin config — read-only replicas</text>
  <g font-size="11" fill="#713f12">
    <rect x="812" y="118" width="120" height="28" rx="6" fill="#ffffff" opacity="0.8" stroke="#fde68a"/>
    <text x="872" y="136" text-anchor="middle">global policies</text>
    <rect x="940" y="118" width="136" height="28" rx="6" fill="#ffffff" opacity="0.8" stroke="#fde68a"/>
    <text x="1008" y="136" text-anchor="middle">release topologies</text>
    <rect x="812" y="150" width="168" height="28" rx="6" fill="#ffffff" opacity="0.8" stroke="#fde68a"/>
    <text x="896" y="168" text-anchor="middle">campaigns · initiatives</text>
    <rect x="988" y="150" width="122" height="28" rx="6" fill="#ffffff" opacity="0.8" stroke="#fde68a"/>
    <text x="1049" y="168" text-anchor="middle">domain registry</text>
  </g>
  <text x="812" y="198" font-size="9.5" font-style="italic" fill="#a16207">hand-filled ⇒ provenance: manual (unverified) — reconciled on next signed import</text>
  <text x="812" y="214" font-size="9.5" font-style="italic" fill="#a16207">child may only add stricter local policy + overlays (annotates)</text>
  <line x1="770" y1="156" x2="800" y2="156" stroke="#0f766e" stroke-width="1.6" marker-end="url(#arrTeal)"/>

  <rect x="1250" y="88" width="270" height="136" rx="10" fill="#f0fdfa" stroke="#0f766e"/>
  <text x="1262" y="110" font-size="12.5" font-weight="700" fill="#0f766e">Federation export — child → parent</text>
  <g font-size="10.5" fill="#134e4a">
    <rect x="1262" y="118" width="246" height="28" rx="6" fill="#ffffff" opacity="0.8" stroke="#5eead4"/>
    <text x="1272" y="136">status · changes · audit segments</text>
    <rect x="1262" y="150" width="246" height="28" rx="6" fill="#ffffff" opacity="0.8" stroke="#5eead4"/>
    <text x="1272" y="168">signed with the child's Ed25519 key</text>
    <rect x="1262" y="182" width="246" height="28" rx="6" fill="#ffffff" opacity="0.8" stroke="#5eead4"/>
    <text x="1272" y="200">child-initiated push (mTLS) or bundle ↑</text>
  </g>

  <!-- instance outer -->
  <rect x="40" y="252" width="1480" height="800" rx="14" fill="none" stroke="#334155" stroke-width="2"/>
  <text x="60" y="276" font-size="13" font-weight="700" fill="#334155">scpd — child domain instance · child is the single-writer authority for all local objects</text>

  <!-- api role -->
  <rect x="64" y="292" width="300" height="330" rx="10" fill="#eff6ff" stroke="#1d4ed8"/>
  <text x="76" y="316" font-size="13" font-weight="700" fill="#1d4ed8">api role</text>
  <g font-size="11" fill="#1e3a8a">
    <rect x="76" y="330" width="276" height="40" rx="6" fill="#ffffff" opacity="0.75" stroke="#93c5fd"/>
    <text x="86" y="355">clients: Web UI · CLI · SDK · IaC — /v1 only</text>
    <rect x="76" y="378" width="276" height="40" rx="6" fill="#ffffff" opacity="0.75" stroke="#93c5fd"/>
    <text x="86" y="403">AuthN: OIDC · local · PAT — AuthZ: RBAC</text>
    <rect x="76" y="426" width="276" height="40" rx="6" fill="#ffffff" opacity="0.75" stroke="#93c5fd"/>
    <text x="86" y="451">REST /v1 · graph queries · plan/apply</text>
    <rect x="76" y="474" width="276" height="40" rx="6" fill="#ffffff" opacity="0.75" stroke="#93c5fd"/>
    <text x="86" y="499">webhook ingress: persist → process</text>
    <rect x="76" y="522" width="276" height="40" rx="6" fill="#ffffff" opacity="0.75" stroke="#93c5fd"/>
    <text x="86" y="547">SSE stream + static Web UI</text>
    <rect x="76" y="570" width="276" height="40" rx="6" fill="#ffffff" opacity="0.75" stroke="#93c5fd"/>
    <text x="86" y="595">blocked 4xx carries its decision_id</text>
  </g>

  <!-- coordination engine -->
  <rect x="396" y="292" width="560" height="330" rx="10" fill="#f5f3ff" stroke="#6d28d9"/>
  <text x="408" y="314" font-size="12.5" font-weight="700" fill="#6d28d9">Coordination Engine — durable state machine (Postgres + pg-boss · watchdog)</text>
  <!-- lifecycle -->
  <g font-size="10.5">
    <rect x="410" y="330" width="94" height="26" rx="6" fill="#ffffff" stroke="#a78bfa"/>
    <text x="457" y="347" text-anchor="middle" fill="#4c1d95">proposed</text>
    <rect x="518" y="330" width="94" height="26" rx="6" fill="#ffffff" stroke="#a78bfa"/>
    <text x="565" y="347" text-anchor="middle" fill="#4c1d95">evaluated</text>
    <rect x="626" y="330" width="94" height="26" rx="6" fill="#ffffff" stroke="#a78bfa"/>
    <text x="673" y="347" text-anchor="middle" fill="#4c1d95">coordinated</text>
    <rect x="734" y="330" width="94" height="26" rx="6" fill="#ffffff" stroke="#a78bfa"/>
    <text x="781" y="347" text-anchor="middle" fill="#4c1d95">executing</text>
    <rect x="842" y="330" width="94" height="26" rx="6" fill="#ffffff" stroke="#a78bfa"/>
    <text x="889" y="347" text-anchor="middle" fill="#4c1d95">validating</text>
    <line x1="504" y1="343" x2="518" y2="343" stroke="#6d28d9" stroke-width="1.4" marker-end="url(#arr)"/>
    <line x1="612" y1="343" x2="626" y2="343" stroke="#6d28d9" stroke-width="1.4" marker-end="url(#arr)"/>
    <line x1="720" y1="343" x2="734" y2="343" stroke="#6d28d9" stroke-width="1.4" marker-end="url(#arr)"/>
    <line x1="828" y1="343" x2="842" y2="343" stroke="#6d28d9" stroke-width="1.4" marker-end="url(#arr)"/>
    <rect x="510" y="384" width="94" height="26" rx="6" fill="#f3f4f6" stroke="#9ca3af"/>
    <text x="557" y="401" text-anchor="middle" fill="#4b5563">cancelled</text>
    <rect x="690" y="384" width="106" height="26" rx="6" fill="#fee2e2" stroke="#b91c1c"/>
    <text x="743" y="401" text-anchor="middle" fill="#b91c1c">rolled_back</text>
    <rect x="842" y="384" width="94" height="26" rx="6" fill="#dcfce7" stroke="#15803d"/>
    <text x="889" y="401" text-anchor="middle" fill="#15803d">promoted</text>
    <line x1="889" y1="356" x2="889" y2="384" stroke="#15803d" stroke-width="1.4" marker-end="url(#arr)"/>
    <line x1="800" y1="356" x2="752" y2="384" stroke="#b91c1c" stroke-width="1.4" marker-end="url(#arrRed)"/>
    <line x1="620" y1="356" x2="572" y2="384" stroke="#9ca3af" stroke-width="1.4" marker-end="url(#arr)"/>
  </g>
  <text x="410" y="434" font-size="10.5" font-style="italic" fill="#6d28d9">one guarded transition fn: gate check + audit event + Decision — atomic</text>
  <!-- waves -->
  <text x="410" y="460" font-size="11" font-weight="700" fill="#4c1d95">release plan — topology + depends_on toposort:</text>
  <g font-size="10">
    <rect x="410" y="470" width="118" height="52" rx="6" fill="#ffffff" stroke="#a78bfa"/>
    <text x="469" y="491" text-anchor="middle" fill="#4c1d95">Wave 1</text>
    <text x="469" y="507" text-anchor="middle" fill="#6b7280">infra first</text>
    <rect x="540" y="480" width="58" height="32" rx="6" fill="#fef9c3" stroke="#a16207"/>
    <text x="569" y="500" text-anchor="middle" fill="#a16207" font-weight="700">GATE</text>
    <rect x="610" y="470" width="118" height="52" rx="6" fill="#ffffff" stroke="#a78bfa"/>
    <text x="669" y="491" text-anchor="middle" fill="#4c1d95">Wave 2</text>
    <text x="669" y="507" text-anchor="middle" fill="#6b7280">canary 5%</text>
    <rect x="740" y="480" width="58" height="32" rx="6" fill="#fef9c3" stroke="#a16207"/>
    <text x="769" y="500" text-anchor="middle" fill="#a16207" font-weight="700">GATE</text>
    <rect x="810" y="470" width="130" height="52" rx="6" fill="#ffffff" stroke="#a78bfa"/>
    <text x="875" y="491" text-anchor="middle" fill="#4c1d95">Wave 3</text>
    <text x="875" y="507" text-anchor="middle" fill="#6b7280">fan-out: full fleet</text>
    <line x1="528" y1="496" x2="540" y2="496" stroke="#6d28d9" stroke-width="1.4" marker-end="url(#arr)"/>
    <line x1="598" y1="496" x2="610" y2="496" stroke="#6d28d9" stroke-width="1.4" marker-end="url(#arr)"/>
    <line x1="728" y1="496" x2="740" y2="496" stroke="#6d28d9" stroke-width="1.4" marker-end="url(#arr)"/>
    <line x1="798" y1="496" x2="810" y2="496" stroke="#6d28d9" stroke-width="1.4" marker-end="url(#arr)"/>
  </g>
  <text x="410" y="550" font-size="10.5" fill="#4c1d95">parallel waves fan out · a fan-in gate requires every target of the prior wave green</text>
  <text x="410" y="570" font-size="10.5" fill="#4c1d95">gates bind required controls — advisory / recommended controls only annotate</text>
  <text x="410" y="596" font-size="10.5" font-style="italic" fill="#6d28d9">watchdog: no progress within the state's SLA → Decision + escalation</text>

  <!-- governance -->
  <rect x="988" y="292" width="510" height="330" rx="10" fill="#fefce8" stroke="#a16207"/>
  <text x="1000" y="314" font-size="12.5" font-weight="700" fill="#a16207">Governance Engine — feeds every gate</text>
  <g font-size="11" fill="#713f12">
    <rect x="1000" y="326" width="486" height="38" rx="6" fill="#ffffff" opacity="0.8" stroke="#fde68a"/>
    <text x="1010" y="350">CEL policies — stricter-wins: global (parent) ⊆ local (child)</text>
    <rect x="1000" y="368" width="486" height="38" rx="6" fill="#ffffff" opacity="0.8" stroke="#fde68a"/>
    <text x="1010" y="392">security scans: Trivy · Snyk · Semgrep · Grype (control plugins)</text>
    <rect x="1000" y="410" width="486" height="38" rx="6" fill="#ffffff" opacity="0.8" stroke="#fde68a"/>
    <text x="1010" y="434">quality: unit · integration · smoke — operational: health · canary · bake</text>
    <rect x="1000" y="452" width="486" height="38" rx="6" fill="#ffffff" opacity="0.8" stroke="#fde68a"/>
    <text x="1010" y="476">compliance: CAB · ticket · security review (webhook-control)</text>
    <rect x="1000" y="494" width="486" height="38" rx="6" fill="#ffffff" opacity="0.8" stroke="#fde68a"/>
    <text x="1010" y="518">approvals N-of-M → Ed25519 attestation signed at creation</text>
    <rect x="1000" y="536" width="486" height="38" rx="6" fill="#ffffff" opacity="0.8" stroke="#fde68a"/>
    <text x="1010" y="560">freezes + audited override (reason required) · emergency path</text>
    <rect x="1000" y="578" width="486" height="38" rx="6" fill="#ffffff" opacity="0.8" stroke="#fde68a"/>
    <text x="1010" y="602">outcomes: pass · fail · warning · skipped · timed_out · expired → evidence</text>
  </g>
  <line x1="988" y1="496" x2="956" y2="496" stroke="#a16207" stroke-width="1.6" marker-end="url(#arr)"/>
  <text x="972" y="486" text-anchor="middle" font-size="8.5" fill="#a16207">gates</text>

  <!-- change sources -->
  <rect x="64" y="642" width="300" height="96" rx="10" fill="#f3f4f6" stroke="#64748b"/>
  <text x="76" y="664" font-size="12" font-weight="700" fill="#374151">Change sources + correlation</text>
  <text x="76" y="686" font-size="10.5" fill="#4b5563">detection: webhooks (push) · polling (pull) · hybrid</text>
  <text x="76" y="704" font-size="10.5" fill="#4b5563">correlate: repo+path · commit SHA · artifact digest · key</text>
  <text x="76" y="722" font-size="10.5" fill="#4b5563">app + infra + config repos → one CoordinatedChange</text>

  <!-- rollback -->
  <rect x="396" y="642" width="560" height="96" rx="10" fill="#fee2e2" stroke="#b91c1c"/>
  <text x="408" y="664" font-size="12" font-weight="700" fill="#b91c1c">Rollback — a first-class Change through the same wave machinery</text>
  <text x="408" y="688" font-size="10.5" fill="#7f1d1d">triggers: gate/control failure · canary threshold · health check · policy violation · manual (always available)</text>
  <text x="408" y="710" font-size="10.5" fill="#7f1d1d">action: prior Argo revision · previous artifact digest · prior IaC state ref — the Decision names the trigger</text>
  <line x1="676" y1="622" x2="676" y2="642" stroke="#b91c1c" stroke-width="1.6" marker-end="url(#arrRed)"/>

  <!-- explainability -->
  <rect x="988" y="642" width="510" height="96" rx="10" fill="#f5f3ff" stroke="#6d28d9"/>
  <text x="1000" y="664" font-size="12" font-weight="700" fill="#6d28d9">Explainability + audit</text>
  <text x="1000" y="688" font-size="10.5" fill="#4c1d95">every verdict → Decision record (inputs + reason tree) · scp change explain</text>
  <text x="1000" y="710" font-size="10.5" fill="#4c1d95">hash-chained audit written in-transaction · scp audit verify · anchored to storage</text>

  <!-- data band -->
  <rect x="64" y="758" width="1000" height="140" rx="10" fill="#f0fdf4" stroke="#15803d"/>
  <text x="76" y="780" font-size="12.5" font-weight="700" fill="#15803d">PostgreSQL 16 — system of record (org_id + RLS)</text>
  <g font-size="10.5" fill="#14532d">
    <rect x="76" y="792" width="210" height="30" rx="6" fill="#ffffff" opacity="0.8" stroke="#86efac"/>
    <text x="181" y="811" text-anchor="middle">graph: objects · relationships</text>
    <rect x="294" y="792" width="300" height="30" rx="6" fill="#ffffff" opacity="0.8" stroke="#86efac"/>
    <text x="444" y="811" text-anchor="middle">local authority: services · components · targets</text>
    <rect x="602" y="792" width="170" height="30" rx="6" fill="#ffffff" opacity="0.8" stroke="#86efac"/>
    <text x="687" y="811" text-anchor="middle">changes · plans · waves</text>
    <rect x="780" y="792" width="90" height="30" rx="6" fill="#ffffff" opacity="0.8" stroke="#86efac"/>
    <text x="825" y="811" text-anchor="middle">decisions</text>
    <rect x="76" y="828" width="180" height="30" rx="6" fill="#ffffff" opacity="0.8" stroke="#86efac"/>
    <text x="166" y="847" text-anchor="middle">audit chain (hash-linked)</text>
    <rect x="264" y="828" width="70" height="30" rx="6" fill="#ffffff" opacity="0.8" stroke="#86efac"/>
    <text x="299" y="847" text-anchor="middle">outbox</text>
    <rect x="342" y="828" width="80" height="30" rx="6" fill="#ffffff" opacity="0.8" stroke="#86efac"/>
    <text x="382" y="847" text-anchor="middle">pg-boss</text>
    <rect x="430" y="828" width="160" height="30" rx="6" fill="#ffffff" opacity="0.8" stroke="#86efac"/>
    <text x="510" y="847" text-anchor="middle">sync journal + cursors</text>
    <rect x="598" y="828" width="170" height="30" rx="6" fill="#ffffff" opacity="0.8" stroke="#86efac"/>
    <text x="683" y="847" text-anchor="middle">approvals + attestations</text>
    <rect x="776" y="828" width="190" height="30" rx="6" fill="#ffffff" opacity="0.8" stroke="#86efac"/>
    <text x="871" y="847" text-anchor="middle">parent-origin replicas (RO)</text>
  </g>
  <text x="76" y="884" font-size="10" font-style="italic" fill="#166534">all engine state lives here — any worker resumes any change after a crash</text>

  <rect x="1080" y="758" width="200" height="62" rx="10" fill="#f0fdfa" stroke="#0f766e" stroke-dasharray="6 4"/>
  <text x="1180" y="784" text-anchor="middle" font-size="11" font-weight="700" fill="#0f766e">NATS JetStream (optional)</text>
  <text x="1180" y="802" text-anchor="middle" font-size="9.5" fill="#134e4a">high-volume EventBus backend</text>
  <rect x="1080" y="830" width="200" height="68" rx="10" fill="#f0fdf4" stroke="#15803d"/>
  <text x="1180" y="854" text-anchor="middle" font-size="11" font-weight="700" fill="#15803d">Object storage</text>
  <text x="1180" y="872" text-anchor="middle" font-size="9.5" fill="#14532d">evidence · bundles · audit anchors</text>

  <rect x="1300" y="758" width="198" height="62" rx="10" fill="#eff6ff" stroke="#1d4ed8"/>
  <text x="1399" y="784" text-anchor="middle" font-size="11" font-weight="700" fill="#1d4ed8">Identity</text>
  <text x="1399" y="802" text-anchor="middle" font-size="9.5" fill="#1e3a8a">local OIDC / local-auth (air-gap ok)</text>
  <rect x="1300" y="830" width="198" height="68" rx="10" fill="#fff7ed" stroke="#c2410c"/>
  <text x="1399" y="854" text-anchor="middle" font-size="11" font-weight="700" fill="#c2410c">Secrets store</text>
  <text x="1399" y="872" text-anchor="middle" font-size="9.5" fill="#7c2d12">vaulted scoped creds (managed-iac)</text>

  <!-- plugin host -->
  <rect x="64" y="918" width="1434" height="114" rx="10" fill="#fff7ed" stroke="#c2410c"/>
  <text x="76" y="940" font-size="12.5" font-weight="700" fill="#c2410c">Plugin host — subprocess per plugin instance · JSON-RPC over stdio · timeouts · restart + backoff · resource limits</text>
  <g font-size="10">
    <rect x="76" y="954" width="230" height="56" rx="6" fill="#ffffff" opacity="0.85" stroke="#fed7aa"/>
    <text x="191" y="976" text-anchor="middle" fill="#7c2d12" font-weight="700">GitHub App plugin</text>
    <text x="191" y="994" text-anchor="middle" fill="#9a3412">webhooks + polling · discovery</text>
    <rect x="314" y="954" width="170" height="56" rx="6" fill="#ffffff" opacity="0.85" stroke="#fed7aa"/>
    <text x="399" y="976" text-anchor="middle" fill="#7c2d12" font-weight="700">Argo CD plugin</text>
    <text x="399" y="994" text-anchor="middle" fill="#9a3412">watch · sync · abort</text>
    <rect x="492" y="954" width="190" height="56" rx="6" fill="#ffffff" opacity="0.85" stroke="#fed7aa"/>
    <text x="587" y="976" text-anchor="middle" fill="#7c2d12" font-weight="700">Terraform — Mode 1</text>
    <text x="587" y="994" text-anchor="middle" fill="#9a3412">pipeline-mediated gate</text>
    <rect x="690" y="954" width="310" height="56" rx="6" fill="#fee2e2" opacity="0.9" stroke="#b91c1c"/>
    <text x="845" y="976" text-anchor="middle" fill="#b91c1c" font-weight="700">managed-iac — Mode 2 (thin orchestrator)</text>
    <text x="845" y="994" text-anchor="middle" fill="#7f1d1d">launches scp-runner-iac containers — charter exception</text>
    <rect x="1008" y="954" width="130" height="56" rx="6" fill="#ffffff" opacity="0.85" stroke="#fed7aa"/>
    <text x="1073" y="980" text-anchor="middle" fill="#7c2d12" font-weight="700">webhook-control</text>
    <text x="1073" y="996" text-anchor="middle" fill="#9a3412">custom controls</text>
    <rect x="1146" y="954" width="150" height="56" rx="6" fill="#ffffff" opacity="0.85" stroke="#fed7aa"/>
    <text x="1221" y="980" text-anchor="middle" fill="#7c2d12" font-weight="700">notify</text>
    <text x="1221" y="996" text-anchor="middle" fill="#9a3412">smtp · webhook</text>
    <rect x="1304" y="954" width="150" height="56" rx="6" fill="#ffffff" opacity="0.85" stroke="#fed7aa"/>
    <text x="1379" y="980" text-anchor="middle" fill="#7c2d12" font-weight="700">identity</text>
    <text x="1379" y="996" text-anchor="middle" fill="#9a3412">oidc · local-auth</text>
  </g>

  <!-- verbs caption moved to legend to keep the connector lane clear -->

  <!-- external execution systems -->
  <g font-size="10">
    <rect x="76" y="1084" width="260" height="112" rx="10" fill="#f3f4f6" stroke="#374151"/>
    <text x="206" y="1106" text-anchor="middle" font-weight="700" fill="#111827" font-size="11.5">GitHub / GitHub Actions</text>
    <text x="206" y="1126" text-anchor="middle" fill="#4b5563">webhooks: push · PR · workflow_run</text>
    <text x="206" y="1144" text-anchor="middle" fill="#4b5563">trigger: workflow_dispatch</text>
    <text x="206" y="1162" text-anchor="middle" fill="#4b5563">SCP check = branch-protection gate</text>
    <rect x="352" y="1084" width="260" height="112" rx="10" fill="#f3f4f6" stroke="#374151"/>
    <text x="482" y="1106" text-anchor="middle" font-weight="700" fill="#111827" font-size="11.5">Argo CD → Kubernetes</text>
    <text x="482" y="1126" text-anchor="middle" fill="#4b5563">observe app health + sync status</text>
    <text x="482" y="1144" text-anchor="middle" fill="#4b5563">trigger sync (target revision)</text>
    <text x="482" y="1162" text-anchor="middle" fill="#4b5563">rollback: sync to previous revision</text>
    <rect x="628" y="1084" width="280" height="112" rx="10" fill="#f3f4f6" stroke="#374151"/>
    <text x="768" y="1106" text-anchor="middle" font-weight="700" fill="#111827" font-size="11.5">Org Terraform / OpenTofu pipeline</text>
    <text x="768" y="1126" text-anchor="middle" fill="#4b5563">reports plan / apply results</text>
    <text x="768" y="1144" text-anchor="middle" fill="#4b5563">asks SCP for a gate verdict pre-apply</text>
    <text x="768" y="1162" text-anchor="middle" fill="#4b5563">→ cloud infrastructure</text>
    <rect x="924" y="1084" width="290" height="112" rx="10" fill="#fff1f2" stroke="#b91c1c"/>
    <text x="1069" y="1106" text-anchor="middle" font-weight="700" fill="#b91c1c" font-size="11.5">scp-runner-iac — ephemeral runner (SCP)</text>
    <text x="1069" y="1126" text-anchor="middle" fill="#7f1d1d">separate image · pinned tofu/terraform</text>
    <text x="1069" y="1144" text-anchor="middle" fill="#7f1d1d">plan → evidence · apply after gates pass</text>
    <text x="1069" y="1162" text-anchor="middle" fill="#7f1d1d">rollback via prior state ref → infra</text>
    <rect x="1230" y="1084" width="220" height="112" rx="10" fill="#f3f4f6" stroke="#374151"/>
    <text x="1340" y="1106" text-anchor="middle" font-weight="700" fill="#111827" font-size="11.5">SMTP / webhook receivers</text>
    <text x="1340" y="1126" text-anchor="middle" fill="#4b5563">notifications + escalations</text>
    <text x="1340" y="1144" text-anchor="middle" fill="#4b5563">(watchdog alerts land here)</text>
  </g>
  <line x1="191" y1="1032" x2="206" y2="1084" stroke="#475569" stroke-width="1.4" marker-end="url(#arr)"/>
  <line x1="399" y1="1032" x2="482" y2="1084" stroke="#475569" stroke-width="1.4" marker-end="url(#arr)"/>
  <line x1="587" y1="1032" x2="740" y2="1084" stroke="#475569" stroke-width="1.4" marker-end="url(#arr)"/>
  <line x1="845" y1="1032" x2="1050" y2="1084" stroke="#b91c1c" stroke-width="1.4" marker-end="url(#arrRed)"/>
  <line x1="1221" y1="1032" x2="1330" y2="1084" stroke="#475569" stroke-width="1.4" marker-end="url(#arr)"/>

  <!-- legend -->
  <line x1="40" y1="1244" x2="90" y2="1244" stroke="#0f766e" stroke-width="1.8"/>
  <text x="98" y="1248" font-size="10.5" fill="#475569">connected sync (mTLS)</text>
  <line x1="260" y1="1244" x2="310" y2="1244" stroke="#0f766e" stroke-width="1.8" stroke-dasharray="6 4"/>
  <text x="318" y="1248" font-size="10.5" fill="#475569">air-gap file transfer</text>
  <line x1="470" y1="1244" x2="520" y2="1244" stroke="#64748b" stroke-width="1.4" stroke-dasharray="2 3"/>
  <text x="528" y="1248" font-size="10.5" fill="#475569">manual entry (provenance: manual)</text>
  <rect x="740" y="1234" width="16" height="16" fill="#fee2e2" stroke="#b91c1c"/>
  <text x="764" y="1248" font-size="10.5" fill="#475569">rollback / managed-execution exception paths</text>
  <rect x="1030" y="1234" width="16" height="16" fill="#fef9c3" stroke="#a16207"/>
  <text x="1054" y="1248" font-size="10.5" fill="#475569">gates + governance</text>
  <text x="40" y="1276" font-size="11" font-weight="700" fill="#475569">executor verbs: observe · trigger · status · abort — SCP holds execution-system API credentials only (single exception: the managed-iac isolated runner)</text>
</svg>
